<svg width="499" height="420" version="1.1" xmlns="http://www.w3.org/2000/svg" desc="Created with imagetracer.js version 1.2.6" ><path fill="rgb(0,0,0)" stroke="rgb(0,0,0)" stroke-width="1" opacity="0" d="M 0 0 L 112 0.5 Q 91.7 3.2 77.5 12 Q 63.8 20.3 53 31.5 Q 38.9 46.4 31 67.5 L 26 87.5 L 25 107.5 L 29 130.5 L 36 148 L 96.5 148 L 97 146 Q 87.2 143.4 81 135.5 L 73 120.5 L 71 109.5 L 71 93.5 Q 75 71.5 89.5 60 L 107.5 49 L 121.5 45 L 132.5 45 L 133.5 44 L 400.5 44 Q 407.9 41.4 412 35.5 L 415 29.5 L 416 18.5 Q 414.1 6.9 405.5 2 L 401 0.5 L 499 0 L 498.5 276 Q 490 227 458.5 201 Q 437.3 181.7 406.5 172 L 380.5 167 L 342 167 L 342 148 L 374.5 148 L 374.5 147 L 372 145.5 L 368 131.5 L 367 98.5 L 368 97.5 L 369 76.5 Q 370.3 68.3 375 63.5 L 336.5 63 L 335.5 62 L 289.5 62 L 288.5 63 L 136.5 63 L 120.5 68 L 107 79.5 Q 100.4 87.4 98 99.5 L 98 116.5 Q 101 130.5 110.5 138 L 122.5 145 L 135.5 148 L 295 148 L 295 166.5 L 294.5 167 L 20.5 167 L 11.5 169 L 3 176.5 L 0.5 183 L 0 0 Z " /><path fill="rgb(0,0,0)" stroke="rgb(0,0,0)" stroke-width="1" opacity="0" d="M 0.5 198 Q 2.3 206.2 8.5 210 L 14.5 213 Q 19.3 211.8 20.5 214 L 295 214 L 295 234.5 L 294.5 235 L 54.5 235 L 57 238.5 L 60 245.5 L 63 262.5 L 64 309.5 L 63 310.5 L 63 322.5 L 62 323.5 L 61 335.5 Q 59.5 344.5 54 349.5 L 376.5 350 Q 400.8 345.3 413 328.5 Q 419.7 320.7 423 309.5 L 425 300.5 L 425 285.5 Q 420.7 260.8 404.5 248 Q 394.7 239.3 379.5 236 Q 374.7 237.2 373.5 235 L 342 235 L 342 214 L 387.5 214 Q 419 220.5 435 242.5 Q 443.6 253.9 449 268.5 L 453 286.5 L 453 303.5 L 450 318.5 L 443 334.5 Q 435.4 347.9 423.5 357 L 403.5 368 L 390.5 372 L 379.5 374 L 371.5 374 L 370.5 375 L 16.5 375 Q 8.2 376.7 4 382.5 L 0.5 390 L 0.5 198 Z " /><path fill="rgb(0,0,0)" stroke="rgb(0,0,0)" stroke-width="1" opacity="0" d="M 498.5 308 L 499 420 L 391 419.5 Q 417.5 415.5 436.5 404 Q 454.6 393.1 468 377.5 Q 479.8 363.8 488 346.5 Q 496.1 330.1 498.5 308 Z " /><path fill="rgb(0,0,0)" stroke="rgb(0,0,0)" stroke-width="1" opacity="0" d="M 0.5 405 Q 2.3 413.2 8.5 417 L 14 419.5 L 0 420 L 0.5 405 Z " /><path fill="rgb(230,230,232)" stroke="rgb(230,230,232)" stroke-width="1" opacity="0.4823529411764706" d="M 136.5 63 L 290 63.5 L 136.5 64 L 136.5 63 Z " /><path fill="rgb(230,230,232)" stroke="rgb(230,230,232)" stroke-width="1" opacity="0.4823529411764706" d="M 337.5 63 L 375 63.5 L 370.5 72 L 370 69.5 L 373 64.5 L 337.5 64 L 337.5 63 Z " /><path fill="rgb(230,230,232)" stroke="rgb(230,230,232)" stroke-width="1" opacity="0.4823529411764706" d="M 131.5 64 L 135 64.5 L 131.5 65 L 131.5 64 Z " /><path fill="rgb(230,230,232)" stroke="rgb(230,230,232)" stroke-width="1" opacity="0.4823529411764706" d="M 127.5 65 L 130 65.5 L 125.5 67 L 125.5 66 L 127.5 65 Z " /><path fill="rgb(230,230,232)" stroke="rgb(230,230,232)" stroke-width="1" opacity="0.4823529411764706" d="M 122.5 67 L 124 67.5 Q 114.1 71.6 108 79.5 L 101.5 91 L 101 89.5 Q 105.8 78.8 114.5 72 L 122.5 67 Z " /><path fill="rgb(230,230,232)" stroke="rgb(230,230,232)" stroke-width="1" opacity="0.4823529411764706" d="M 369.5 73 L 370 75.5 L 369 75.5 L 369.5 73 Z " /><path fill="rgb(230,230,232)" stroke="rgb(230,230,232)" stroke-width="1" opacity="0.4823529411764706" d="M 368.5 78 L 369 82.5 L 368 82.5 L 368.5 78 Z " /><path fill="rgb(230,230,232)" stroke="rgb(230,230,232)" stroke-width="1" opacity="0.4823529411764706" d="M 367.5 86 L 368 97.5 L 367 97.5 L 367.5 86 Z " /><path fill="rgb(230,230,232)" stroke="rgb(230,230,232)" stroke-width="1" opacity="0.4823529411764706" d="M 99.5 95 L 100 97.5 L 99 97.5 L 99.5 95 Z " /><path fill="rgb(230,230,232)" stroke="rgb(230,230,232)" stroke-width="1" opacity="0.4823529411764706" d="M 98.5 99 L 99 103.5 L 98 103.5 L 98.5 99 Z " /><path fill="rgb(230,230,232)" stroke="rgb(230,230,232)" stroke-width="1" opacity="0.4823529411764706" d="M 98.5 112 L 99 116.5 L 98 116.5 L 98.5 112 Z " /><path fill="rgb(230,230,232)" stroke="rgb(230,230,232)" stroke-width="1" opacity="0.4823529411764706" d="M 99.5 118 Q 102 129.5 109.5 136 Q 116.6 142.9 128 145.5 L 125.5 146 Q 113.3 142.3 106 133.5 Q 99.3 127.6 99.5 118 Z " /><path fill="rgb(230,230,232)" stroke="rgb(230,230,232)" stroke-width="1" opacity="0.4823529411764706" d="M 367.5 118 L 368 129.5 L 367 129.5 L 367.5 118 Z " /><path fill="rgb(230,230,232)" stroke="rgb(230,230,232)" stroke-width="1" opacity="0.4823529411764706" d="M 368.5 132 L 369 136.5 L 368 136.5 L 368.5 132 Z " /><path fill="rgb(230,230,232)" stroke="rgb(230,230,232)" stroke-width="1" opacity="0.4823529411764706" d="M 369.5 138 Q 369.8 144.2 373.5 147 L 375 147.5 L 342.5 148 L 342.5 147 L 372 146.5 Q 367.8 143.7 369.5 138 Z " /><path fill="rgb(230,230,232)" stroke="rgb(230,230,232)" stroke-width="1" opacity="0.4823529411764706" d="M 129.5 146 L 133 146.5 L 129.5 147 L 129.5 146 Z " /><path fill="rgb(230,230,232)" stroke="rgb(230,230,232)" stroke-width="1" opacity="0.4823529411764706" d="M 135.5 147 L 295 147.5 L 135.5 148 L 135.5 147 Z " /><path fill="rgb(230,230,232)" stroke="rgb(230,230,232)" stroke-width="1" opacity="0.4823529411764706" d="M 54.5 235 L 295 235.5 L 56 236.5 L 59 241.5 L 58 241.5 L 54.5 235 Z " /><path fill="rgb(230,230,232)" stroke="rgb(230,230,232)" stroke-width="1" opacity="0.4823529411764706" d="M 342.5 235 L 374 235.5 L 342.5 236 L 342.5 235 Z " /><path fill="rgb(230,230,232)" stroke="rgb(230,230,232)" stroke-width="1" opacity="0.4823529411764706" d="M 376.5 236 L 380 236.5 L 376.5 237 L 376.5 236 Z " /><path fill="rgb(230,230,232)" stroke="rgb(230,230,232)" stroke-width="1" opacity="0.4823529411764706" d="M 381.5 237 L 384 237.5 L 381.5 238 L 381.5 237 Z " /><path fill="rgb(230,230,232)" stroke="rgb(230,230,232)" stroke-width="1" opacity="0.4823529411764706" d="M 388.5 239 Q 403.1 244.4 412 255.5 Q 419.7 264.3 423 277.5 L 422 277.5 Q 417.5 260 405.5 250 Q 398.6 243.4 388.5 240 L 388.5 239 Z " /><path fill="rgb(230,230,232)" stroke="rgb(230,230,232)" stroke-width="1" opacity="0.4823529411764706" d="M 60.5 246 L 61 248.5 L 60 248.5 L 60.5 246 Z " /><path fill="rgb(230,230,232)" stroke="rgb(230,230,232)" stroke-width="1" opacity="0.4823529411764706" d="M 61.5 250 L 62 253.5 L 61 253.5 L 61.5 250 Z " /><path fill="rgb(230,230,232)" stroke="rgb(230,230,232)" stroke-width="1" opacity="0.4823529411764706" d="M 62.5 256 L 63 261.5 L 62 261.5 L 62.5 256 Z " /><path fill="rgb(230,230,232)" stroke="rgb(230,230,232)" stroke-width="1" opacity="0.4823529411764706" d="M 63.5 265 L 64 275.5 L 63 275.5 L 63.5 265 Z " /><path fill="rgb(230,230,232)" stroke="rgb(230,230,232)" stroke-width="1" opacity="0.4823529411764706" d="M 423.5 279 L 424 282.5 L 423 282.5 L 423.5 279 Z " /><path fill="rgb(230,230,232)" stroke="rgb(230,230,232)" stroke-width="1" opacity="0.4823529411764706" d="M 64.5 285 L 65 299.5 L 64 299.5 L 64.5 285 Z " /><path fill="rgb(230,230,232)" stroke="rgb(230,230,232)" stroke-width="1" opacity="0.4823529411764706" d="M 424.5 285 L 425 300.5 L 424 300.5 L 424.5 285 Z " /><path fill="rgb(230,230,232)" stroke="rgb(230,230,232)" stroke-width="1" opacity="0.4823529411764706" d="M 423.5 302 L 424 305.5 L 423 305.5 L 423.5 302 Z " /><path fill="rgb(230,230,232)" stroke="rgb(230,230,232)" stroke-width="1" opacity="0.4823529411764706" d="M 422.5 307 L 423 309.5 L 420.5 315 L 420 313.5 L 422.5 307 Z " /><path fill="rgb(230,230,232)" stroke="rgb(230,230,232)" stroke-width="1" opacity="0.4823529411764706" d="M 63.5 310 L 64 320.5 L 63 320.5 L 63.5 310 Z " /><path fill="rgb(230,230,232)" stroke="rgb(230,230,232)" stroke-width="1" opacity="0.4823529411764706" d="M 419.5 316 L 420 317.5 Q 413.4 330.4 402.5 339 L 386.5 347 L 386.5 346 Q 402.8 340.8 412 328.5 L 419.5 316 Z " /><path fill="rgb(230,230,232)" stroke="rgb(230,230,232)" stroke-width="1" opacity="0.4823529411764706" d="M 62.5 323 L 63 328.5 L 62 328.5 L 62.5 323 Z " /><path fill="rgb(230,230,232)" stroke="rgb(230,230,232)" stroke-width="1" opacity="0.4823529411764706" d="M 61.5 331 L 62 334.5 L 61 334.5 L 61.5 331 Z " /><path fill="rgb(230,230,232)" stroke="rgb(230,230,232)" stroke-width="1" opacity="0.4823529411764706" d="M 60.5 336 L 61 338.5 L 60 338.5 L 60.5 336 Z " /><path fill="rgb(230,230,232)" stroke="rgb(230,230,232)" stroke-width="1" opacity="0.4823529411764706" d="M 59.5 340 L 60 342.5 L 56 350 L 54 349.5 Q 58.4 346.4 59.5 340 Z " /><path fill="rgb(230,230,232)" stroke="rgb(230,230,232)" stroke-width="1" opacity="0.4823529411764706" d="M 382.5 347 L 385 347.5 L 378.5 349 L 378.5 348 L 382.5 347 Z " /><path fill="rgb(230,230,232)" stroke="rgb(230,230,232)" stroke-width="1" opacity="0.4823529411764706" d="M 368.5 349 L 377 349.5 L 368.5 350 L 368.5 349 Z " /><path fill="rgb(37,34,34)" stroke="rgb(37,34,34)" stroke-width="1" opacity="0.40784313725490196" d="M 289.5 62 L 336 62.5 L 291.5 63 L 290.5 64 L 289.5 62 Z " /><path fill="rgb(37,34,34)" stroke="rgb(37,34,34)" stroke-width="1" opacity="0.40784313725490196" d="M 295.5 147 L 296 167.5 L 295 167.5 L 295.5 147 Z " /><path fill="rgb(37,34,34)" stroke="rgb(37,34,34)" stroke-width="1" opacity="0.40784313725490196" d="M 341.5 147 L 342 167.5 L 341 167.5 L 341.5 147 Z " /><path fill="rgb(37,34,34)" stroke="rgb(37,34,34)" stroke-width="1" opacity="0.40784313725490196" d="M 295.5 213 L 296 234.5 L 295 234.5 L 295.5 213 Z " /><path fill="rgb(37,34,34)" stroke="rgb(37,34,34)" stroke-width="1" opacity="0.40784313725490196" d="M 341.5 213 L 342 234.5 L 341 234.5 L 341.5 213 Z " /><path fill="rgb(249,186,36)" stroke="rgb(249,186,36)" stroke-width="1" opacity="0.4392156862745098" d="M 112.5 0 L 119 0.5 L 112.5 1 L 112.5 0 Z " /><path fill="rgb(249,186,36)" stroke="rgb(249,186,36)" stroke-width="1" opacity="0.4392156862745098" d="M 397.5 0 L 401 0.5 L 397.5 1 L 397.5 0 Z " /><path fill="rgb(249,186,36)" stroke="rgb(249,186,36)" stroke-width="1" opacity="0.4392156862745098" d="M 107.5 1 L 111 1.5 L 107.5 2 L 107.5 1 Z " /><path fill="rgb(249,186,36)" stroke="rgb(249,186,36)" stroke-width="1" opacity="0.4392156862745098" d="M 402.5 1 L 405.5 2 L 413 9.5 L 414 12.5 L 413 12.5 Q 411.4 5.6 405.5 3 Q 401.7 2.8 402.5 1 Z " /><path fill="rgb(249,186,36)" stroke="rgb(249,186,36)" stroke-width="1" opacity="0.4392156862745098" d="M 102.5 2 L 106 2.5 L 102.5 3 L 102.5 2 Z " /><path fill="rgb(249,186,36)" stroke="rgb(249,186,36)" stroke-width="1" opacity="0.4392156862745098" d="M 95.5 4 L 98 4.5 Q 67.1 14.6 49 37.5 L 41.5 48 L 42 46.5 Q 48.5 34.5 58.5 26 Q 73.6 11.6 95.5 4 Z " /><path fill="rgb(249,186,36)" stroke="rgb(249,186,36)" stroke-width="1" opacity="0.4392156862745098" d="M 414.5 14 L 415 16.5 L 414 16.5 L 414.5 14 Z " /><path fill="rgb(249,186,36)" stroke="rgb(249,186,36)" stroke-width="1" opacity="0.4392156862745098" d="M 415.5 18 L 416 24.5 L 415 24.5 L 415.5 18 Z " /><path fill="rgb(249,186,36)" stroke="rgb(249,186,36)" stroke-width="1" opacity="0.4392156862745098" d="M 414.5 27 L 415 29.5 Q 412.4 36.9 406.5 41 L 404.5 42 L 405.5 40 L 411 35.5 L 414.5 27 Z " /><path fill="rgb(249,186,36)" stroke="rgb(249,186,36)" stroke-width="1" opacity="0.4392156862745098" d="M 401.5 42 L 403 42.5 L 397.5 44 L 397.5 43 L 401.5 42 Z " /><path fill="rgb(249,186,36)" stroke="rgb(249,186,36)" stroke-width="1" opacity="0.4392156862745098" d="M 123.5 44 L 133 44.5 L 123.5 45 L 123.5 44 Z " /><path fill="rgb(249,186,36)" stroke="rgb(249,186,36)" stroke-width="1" opacity="0.4392156862745098" d="M 117.5 45 L 121 45.5 L 117.5 46 L 117.5 45 Z " /><path fill="rgb(249,186,36)" stroke="rgb(249,186,36)" stroke-width="1" opacity="0.4392156862745098" d="M 113.5 46 L 116 46.5 L 108.5 49 L 108.5 48 L 113.5 46 Z " /><path fill="rgb(249,186,36)" stroke="rgb(249,186,36)" stroke-width="1" opacity="0.4392156862745098" d="M 40.5 49 L 40 50.5 L 33.5 64 L 33 62.5 L 40.5 49 Z " /><path fill="rgb(249,186,36)" stroke="rgb(249,186,36)" stroke-width="1" opacity="0.4392156862745098" d="M 105.5 49 L 107 49.5 L 98.5 54 L 99.5 52 L 105.5 49 Z " /><path fill="rgb(249,186,36)" stroke="rgb(249,186,36)" stroke-width="1" opacity="0.4392156862745098" d="M 96.5 54 L 95.5 56 L 83 66.5 L 74.5 81 L 74 79.5 Q 80 66.5 90.5 58 L 96.5 54 Z " /><path fill="rgb(249,186,36)" stroke="rgb(249,186,36)" stroke-width="1" opacity="0.4392156862745098" d="M 32.5 65 L 33 66.5 L 29.5 76 L 29 73.5 L 32.5 65 Z " /><path fill="rgb(249,186,36)" stroke="rgb(249,186,36)" stroke-width="1" opacity="0.4392156862745098" d="M 28.5 77 L 29 79.5 L 28 79.5 L 28.5 77 Z " /><path fill="rgb(249,186,36)" stroke="rgb(249,186,36)" stroke-width="1" opacity="0.4392156862745098" d="M 27.5 81 L 28 84.5 L 27 84.5 L 27.5 81 Z " /><path fill="rgb(249,186,36)" stroke="rgb(249,186,36)" stroke-width="1" opacity="0.4392156862745098" d="M 72.5 85 L 73 87.5 L 71.5 93 L 71 88.5 L 72.5 85 Z " /><path fill="rgb(249,186,36)" stroke="rgb(249,186,36)" stroke-width="1" opacity="0.4392156862745098" d="M 26.5 87 L 27 92.5 L 26 92.5 L 26.5 87 Z " /><path fill="rgb(249,186,36)" stroke="rgb(249,186,36)" stroke-width="1" opacity="0.4392156862745098" d="M 70.5 96 L 71 104.5 L 70 104.5 L 70.5 96 Z " /><path fill="rgb(249,186,36)" stroke="rgb(249,186,36)" stroke-width="1" opacity="0.4392156862745098" d="M 25.5 97 L 26 107.5 L 25 107.5 L 25.5 97 Z " /><path fill="rgb(249,186,36)" stroke="rgb(249,186,36)" stroke-width="1" opacity="0.4392156862745098" d="M 71.5 110 L 72 114.5 L 71 114.5 L 71.5 110 Z " /><path fill="rgb(249,186,36)" stroke="rgb(249,186,36)" stroke-width="1" opacity="0.4392156862745098" d="M 26.5 112 L 27 117.5 L 26 117.5 L 26.5 112 Z " /><path fill="rgb(249,186,36)" stroke="rgb(249,186,36)" stroke-width="1" opacity="0.4392156862745098" d="M 72.5 116 L 73 119.5 L 72 119.5 L 72.5 116 Z " /><path fill="rgb(249,186,36)" stroke="rgb(249,186,36)" stroke-width="1" opacity="0.4392156862745098" d="M 27.5 119 L 28 122.5 L 27 122.5 L 27.5 119 Z " /><path fill="rgb(249,186,36)" stroke="rgb(249,186,36)" stroke-width="1" opacity="0.4392156862745098" d="M 28.5 124 L 29 126.5 L 28 126.5 L 28.5 124 Z " /><path fill="rgb(249,186,36)" stroke="rgb(249,186,36)" stroke-width="1" opacity="0.4392156862745098" d="M 74.5 124 Q 77.7 133.3 84.5 139 L 97 146 L 96.5 148 L 36 148 Q 31.2 140 29 128.5 L 30 128.5 Q 31.7 139.8 37.5 147 L 95 146.5 Q 85.8 142.7 80 135.5 L 74 125.5 L 74.5 124 Z " /><path fill="rgb(249,186,36)" stroke="rgb(249,186,36)" stroke-width="1" opacity="0.4392156862745098" d="M 20.5 167 L 295 167.5 L 20.5 168 L 20.5 167 Z " /><path fill="rgb(249,186,36)" stroke="rgb(249,186,36)" stroke-width="1" opacity="0.4392156862745098" d="M 342.5 167 L 381 167.5 L 342.5 168 L 342.5 167 Z " /><path fill="rgb(249,186,36)" stroke="rgb(249,186,36)" stroke-width="1" opacity="0.4392156862745098" d="M 14.5 168 L 17 168.5 Q 7.9 169.9 4 176.5 L 1.5 182 L 1 180.5 L 8.5 171 L 14.5 168 Z " /><path fill="rgb(249,186,36)" stroke="rgb(249,186,36)" stroke-width="1" opacity="0.4392156862745098" d="M 384.5 168 L 389 168.5 L 384.5 169 L 384.5 168 Z " /><path fill="rgb(249,186,36)" stroke="rgb(249,186,36)" stroke-width="1" opacity="0.4392156862745098" d="M 391.5 169 L 395 169.5 L 391.5 170 L 391.5 169 Z " /><path fill="rgb(249,186,36)" stroke="rgb(249,186,36)" stroke-width="1" opacity="0.4392156862745098" d="M 396.5 170 L 403 171.5 L 400.5 172 L 396.5 171 L 396.5 170 Z " /><path fill="rgb(249,186,36)" stroke="rgb(249,186,36)" stroke-width="1" opacity="0.4392156862745098" d="M 404.5 172 L 407 172.5 L 404.5 173 L 404.5 172 Z " /><path fill="rgb(249,186,36)" stroke="rgb(249,186,36)" stroke-width="1" opacity="0.4392156862745098" d="M 414.5 175 L 418 176.5 L 416.5 177 L 414.5 175 Z " /><path fill="rgb(249,186,36)" stroke="rgb(249,186,36)" stroke-width="1" opacity="0.4392156862745098" d="M 419.5 177 L 425 179.5 L 423.5 180 L 419.5 178 L 419.5 177 Z " /><path fill="rgb(249,186,36)" stroke="rgb(249,186,36)" stroke-width="1" opacity="0.4392156862745098" d="M 426.5 180 L 429 181.5 L 427.5 181 L 426.5 180 Z " /><path fill="rgb(249,186,36)" stroke="rgb(249,186,36)" stroke-width="1" opacity="0.4392156862745098" d="M 0.5 183 L 1 185.5 L 0 185.5 L 0.5 183 Z " /><path fill="rgb(249,186,36)" stroke="rgb(249,186,36)" stroke-width="1" opacity="0.4392156862745098" d="M 432.5 183 L 438 186.5 L 436.5 186 Q 432.5 185.5 432.5 183 Z " /><path fill="rgb(249,186,36)" stroke="rgb(249,186,36)" stroke-width="1" opacity="0.4392156862745098" d="M 439.5 187 Q 456.6 196.9 469 211.5 Q 479 222.5 486 236.5 L 484 235.5 Q 474.7 216.3 459.5 203 L 440.5 189 L 439.5 187 Z " /><path fill="rgb(249,186,36)" stroke="rgb(249,186,36)" stroke-width="1" opacity="0.4392156862745098" d="M 0.5 194 L 1 197.5 L 0 197.5 L 0.5 194 Z " /><path fill="rgb(249,186,36)" stroke="rgb(249,186,36)" stroke-width="1" opacity="0.4392156862745098" d="M 1.5 199 Q 3.4 205.6 8.5 209 L 11 210.5 L 9.5 210 L 3 204.5 L 1.5 199 Z " /><path fill="rgb(249,186,36)" stroke="rgb(249,186,36)" stroke-width="1" opacity="0.4392156862745098" d="M 12.5 211 L 18 212.5 L 14.5 213 L 12.5 211 Z " /><path fill="rgb(249,186,36)" stroke="rgb(249,186,36)" stroke-width="1" opacity="0.4392156862745098" d="M 20.5 213 L 295 213.5 L 20.5 214 L 20.5 213 Z " /><path fill="rgb(249,186,36)" stroke="rgb(249,186,36)" stroke-width="1" opacity="0.4392156862745098" d="M 342.5 213 L 386 213.5 L 342.5 214 L 342.5 213 Z " /><path fill="rgb(249,186,36)" stroke="rgb(249,186,36)" stroke-width="1" opacity="0.4392156862745098" d="M 388.5 214 L 392 214.5 L 388.5 215 L 388.5 214 Z " /><path fill="rgb(249,186,36)" stroke="rgb(249,186,36)" stroke-width="1" opacity="0.4392156862745098" d="M 393.5 215 L 396 215.5 L 393.5 216 L 393.5 215 Z " /><path fill="rgb(249,186,36)" stroke="rgb(249,186,36)" stroke-width="1" opacity="0.4392156862745098" d="M 400.5 217 L 414 223.5 L 412.5 223 L 400.5 218 L 400.5 217 Z " /><path fill="rgb(249,186,36)" stroke="rgb(249,186,36)" stroke-width="1" opacity="0.4392156862745098" d="M 415.5 224 Q 427.7 231.3 436 242.5 Q 444.3 253.2 449 267.5 L 448 267.5 Q 439.9 243.1 421.5 229 Q 416.2 227.2 415.5 224 Z " /><path fill="rgb(249,186,36)" stroke="rgb(249,186,36)" stroke-width="1" opacity="0.4392156862745098" d="M 487.5 240 L 491 247.5 L 490 247.5 L 487.5 240 Z " /><path fill="rgb(249,186,36)" stroke="rgb(249,186,36)" stroke-width="1" opacity="0.4392156862745098" d="M 491.5 249 L 495 259.5 L 494 259.5 L 491.5 249 Z " /><path fill="rgb(249,186,36)" stroke="rgb(249,186,36)" stroke-width="1" opacity="0.4392156862745098" d="M 495.5 261 L 496 263.5 L 495 263.5 L 495.5 261 Z " /><path fill="rgb(249,186,36)" stroke="rgb(249,186,36)" stroke-width="1" opacity="0.4392156862745098" d="M 496.5 265 L 497 268.5 L 496 268.5 L 496.5 265 Z " /><path fill="rgb(249,186,36)" stroke="rgb(249,186,36)" stroke-width="1" opacity="0.4392156862745098" d="M 449.5 269 L 451 274.5 L 450 274.5 L 449.5 269 Z " /><path fill="rgb(249,186,36)" stroke="rgb(249,186,36)" stroke-width="1" opacity="0.4392156862745098" d="M 497.5 270 L 498 273.5 L 497 273.5 L 497.5 270 Z " /><path fill="rgb(249,186,36)" stroke="rgb(249,186,36)" stroke-width="1" opacity="0.4392156862745098" d="M 451.5 276 L 452 279.5 L 451 279.5 L 451.5 276 Z " /><path fill="rgb(249,186,36)" stroke="rgb(249,186,36)" stroke-width="1" opacity="0.4392156862745098" d="M 498.5 276 L 499 283.5 L 498 283.5 L 498.5 276 Z " /><path fill="rgb(249,186,36)" stroke="rgb(249,186,36)" stroke-width="1" opacity="0.4392156862745098" d="M 452.5 281 L 453 285.5 L 452 285.5 L 452.5 281 Z " /><path fill="rgb(249,186,36)" stroke="rgb(249,186,36)" stroke-width="1" opacity="0.4392156862745098" d="M 453.5 289 L 454 301.5 L 453 301.5 L 453.5 289 Z " /><path fill="rgb(249,186,36)" stroke="rgb(249,186,36)" stroke-width="1" opacity="0.4392156862745098" d="M 498.5 301 L 499 307.5 L 498 307.5 L 498.5 301 Z " /><path fill="rgb(249,186,36)" stroke="rgb(249,186,36)" stroke-width="1" opacity="0.4392156862745098" d="M 452.5 304 L 453 309.5 L 452 309.5 L 452.5 304 Z " /><path fill="rgb(249,186,36)" stroke="rgb(249,186,36)" stroke-width="1" opacity="0.4392156862745098" d="M 497.5 310 L 498 314.5 L 497 314.5 L 497.5 310 Z " /><path fill="rgb(249,186,36)" stroke="rgb(249,186,36)" stroke-width="1" opacity="0.4392156862745098" d="M 451.5 311 L 452 313.5 L 451 313.5 L 451.5 311 Z " /><path fill="rgb(249,186,36)" stroke="rgb(249,186,36)" stroke-width="1" opacity="0.4392156862745098" d="M 450.5 315 L 451 317.5 L 450 317.5 L 450.5 315 Z " /><path fill="rgb(249,186,36)" stroke="rgb(249,186,36)" stroke-width="1" opacity="0.4392156862745098" d="M 496.5 316 L 497 319.5 L 496 319.5 L 496.5 316 Z " /><path fill="rgb(249,186,36)" stroke="rgb(249,186,36)" stroke-width="1" opacity="0.4392156862745098" d="M 495.5 321 L 496 323.5 L 495 323.5 L 495.5 321 Z " /><path fill="rgb(249,186,36)" stroke="rgb(249,186,36)" stroke-width="1" opacity="0.4392156862745098" d="M 448.5 322 L 449 323.5 L 447.5 326 L 447 324.5 L 448.5 322 Z " /><path fill="rgb(249,186,36)" stroke="rgb(249,186,36)" stroke-width="1" opacity="0.4392156862745098" d="M 494.5 325 L 495 327.5 L 493.5 331 L 493 328.5 L 494.5 325 Z " /><path fill="rgb(249,186,36)" stroke="rgb(249,186,36)" stroke-width="1" opacity="0.4392156862745098" d="M 446.5 327 L 447 328.5 Q 440.6 342.1 430.5 352 Q 422.5 360 411.5 365 L 411.5 364 Q 427.3 356.8 437 343.5 L 446.5 327 Z " /><path fill="rgb(249,186,36)" stroke="rgb(249,186,36)" stroke-width="1" opacity="0.4392156862745098" d="M 491.5 335 L 492 336.5 L 488.5 344 L 488 342.5 L 491.5 335 Z " /><path fill="rgb(249,186,36)" stroke="rgb(249,186,36)" stroke-width="1" opacity="0.4392156862745098" d="M 487.5 345 L 488 346.5 Q 475.4 372.9 454.5 391 Q 440.7 403.7 421.5 411 L 421.5 410 Q 448.4 398.9 466 378.5 Q 479 364 487.5 345 Z " /><path fill="rgb(249,186,36)" stroke="rgb(249,186,36)" stroke-width="1" opacity="0.4392156862745098" d="M 406.5 366 L 408 366.5 L 395.5 371 L 395.5 370 L 406.5 366 Z " /><path fill="rgb(249,186,36)" stroke="rgb(249,186,36)" stroke-width="1" opacity="0.4392156862745098" d="M 391.5 371 L 394 371.5 L 391.5 372 L 391.5 371 Z " /><path fill="rgb(249,186,36)" stroke="rgb(249,186,36)" stroke-width="1" opacity="0.4392156862745098" d="M 386.5 372 L 390 372.5 L 386.5 373 L 386.5 372 Z " /><path fill="rgb(249,186,36)" stroke="rgb(249,186,36)" stroke-width="1" opacity="0.4392156862745098" d="M 380.5 373 L 385 373.5 L 380.5 374 L 380.5 373 Z " /><path fill="rgb(249,186,36)" stroke="rgb(249,186,36)" stroke-width="1" opacity="0.4392156862745098" d="M 371.5 374 L 378 374.5 L 371.5 375 L 371.5 374 Z " /><path fill="rgb(249,186,36)" stroke="rgb(249,186,36)" stroke-width="1" opacity="0.4392156862745098" d="M 16.5 375 L 364 375.5 L 16.5 376 L 16.5 375 Z " /><path fill="rgb(249,186,36)" stroke="rgb(249,186,36)" stroke-width="1" opacity="0.4392156862745098" d="M 10.5 377 L 12 377.5 L 5 382.5 Q 1.3 386.8 0.5 394 L 0 390.5 Q 2.1 383.1 7.5 379 L 10.5 377 Z " /><path fill="rgb(249,186,36)" stroke="rgb(249,186,36)" stroke-width="1" opacity="0.4392156862745098" d="M 0.5 402 L 1 404.5 L 0 404.5 L 0.5 402 Z " /><path fill="rgb(249,186,36)" stroke="rgb(249,186,36)" stroke-width="1" opacity="0.4392156862745098" d="M 1.5 406 Q 3.4 412.6 8.5 416 L 11 417.5 L 9.5 417 L 3 411.5 L 1.5 406 Z " /><path fill="rgb(249,186,36)" stroke="rgb(249,186,36)" stroke-width="1" opacity="0.4392156862745098" d="M 418.5 411 L 420 411.5 L 416.5 413 L 416.5 412 L 418.5 411 Z " /><path fill="rgb(249,186,36)" stroke="rgb(249,186,36)" stroke-width="1" opacity="0.4392156862745098" d="M 406.5 415 L 409 415.5 L 403.5 417 L 403.5 416 L 406.5 415 Z " /><path fill="rgb(249,186,36)" stroke="rgb(249,186,36)" stroke-width="1" opacity="0.4392156862745098" d="M 398.5 417 L 402 417.5 L 398.5 418 L 398.5 417 Z " /><path fill="rgb(249,186,36)" stroke="rgb(249,186,36)" stroke-width="1" opacity="0.4392156862745098" d="M 12.5 418 L 18 419.5 L 14.5 420 L 12.5 418 Z " /><path fill="rgb(249,186,36)" stroke="rgb(249,186,36)" stroke-width="1" opacity="0.4392156862745098" d="M 393.5 418 L 397 418.5 L 393.5 419 L 393.5 418 Z " /><path fill="rgb(249,186,36)" stroke="rgb(249,186,36)" stroke-width="1" opacity="0.4392156862745098" d="M 384.5 419 L 391 419.5 L 384.5 420 L 384.5 419 Z " /><path fill="rgb(247,186,38)" stroke="rgb(247,186,38)" stroke-width="1" opacity="0.996078431372549" d="M 119.5 0 L 396.5 0 Q 407.4 1.6 412 9.5 Q 416.2 15.3 415 26.5 Q 413.1 35.6 406.5 40 L 396.5 44 L 123.5 44 Q 96.3 48.8 82 66.5 Q 74.3 75.3 71 88.5 L 70 104.5 L 71 105.5 L 71 114.5 L 74 125.5 Q 77.9 135.1 85.5 141 L 95 146.5 L 37.5 147 Q 24.4 127.6 26 93.5 L 29 76.5 Q 33.3 60.8 41 48.5 Q 50.8 33.3 64.5 22 L 87.5 8 L 101.5 3 L 111.5 1 L 118.5 1 L 119.5 0 Z " /><path fill="rgb(247,186,38)" stroke="rgb(247,186,38)" stroke-width="1" opacity="0.996078431372549" d="M 17.5 168 L 295.5 168 L 296 168.5 L 296 213 L 18.5 213 Q 8.5 211.5 4 204.5 L 1 198.5 L 0 186.5 Q 1.8 176.8 8.5 172 L 17.5 168 Z " /><path fill="rgb(247,186,38)" stroke="rgb(247,186,38)" stroke-width="1" opacity="0.996078431372549" d="M 341 168 L 383.5 168 L 413.5 175 Q 445.9 187.1 467 210.5 Q 482 226.5 491 248.5 L 498 274.5 L 499 300.5 L 498 301.5 L 498 309.5 L 496 320.5 L 488 344.5 Q 475.8 370.8 455.5 389 Q 440.6 402.6 420.5 411 L 402.5 417 L 392.5 419 L 384.5 419 L 383.5 420 L 18.5 420 Q 8.5 418.5 4 411.5 L 0 401.5 L 0 394.5 Q 1.6 385 7.5 380 L 15.5 376 L 363.5 376 L 364.5 375 L 384.5 374 L 403.5 369 Q 420.3 362.3 432 350.5 Q 443.1 339.6 449 323.5 L 453 309.5 L 454 289.5 L 451 272.5 L 442 251.5 Q 433.9 237.5 421.5 228 Q 409.5 218 391.5 214 Q 386.7 215.3 385.5 213 L 341 213 L 341 168 Z " /><path fill="rgb(35,31,32)" stroke="rgb(35,31,32)" stroke-width="1" opacity="1" d="M 291 63 L 336.5 63 L 339 65.5 L 341 70.5 L 341 273.5 L 340 273.5 Q 336.5 257.5 326.5 248 L 318.5 245 Q 310.2 246.2 307 252.5 Q 299.9 261.4 296.5 274 L 296 74.5 L 291 63 Z " /><path fill="rgb(229,230,231)" stroke="rgb(229,230,231)" stroke-width="1" opacity="0.996078431372549" d="M 291.5 65 L 292.5 67 L 291.5 65 Z " /><path fill="rgb(229,230,231)" stroke="rgb(229,230,231)" stroke-width="1" opacity="0.996078431372549" d="M 341.5 72 L 342 146.5 L 341 146.5 L 341.5 72 Z " /><path fill="rgb(229,230,231)" stroke="rgb(229,230,231)" stroke-width="1" opacity="0.996078431372549" d="M 295.5 75 L 296 146.5 L 295 146.5 L 295.5 75 Z " /><path fill="rgb(229,230,231)" stroke="rgb(229,230,231)" stroke-width="1" opacity="0.996078431372549" d="M 295.5 236 L 296 273.5 L 297 275.5 L 295 276.5 L 295.5 236 Z " /><path fill="rgb(229,230,231)" stroke="rgb(229,230,231)" stroke-width="1" opacity="0.996078431372549" d="M 341.5 236 L 342 276.5 L 340 275.5 L 341 273.5 L 341.5 236 Z " /><path fill="rgb(229,230,231)" stroke="rgb(229,230,231)" stroke-width="1" opacity="0.996078431372549" d="M 324.5 247 L 325.5 249 L 324.5 247 Z " /><path fill="rgb(229,230,231)" stroke="rgb(229,230,231)" stroke-width="1" opacity="0.996078431372549" d="M 311.5 248 L 307.5 253 L 311.5 248 Z " /><path fill="rgb(229,230,231)" stroke="rgb(229,230,231)" stroke-width="1" opacity="0.996078431372549" d="M 327.5 249 L 328.5 251 L 327.5 249 Z " /><path fill="rgb(229,230,231)" stroke="rgb(229,230,231)" stroke-width="1" opacity="0.996078431372549" d="M 329.5 252 L 331.5 255 L 329.5 252 Z " /><path fill="rgb(229,230,231)" stroke="rgb(229,230,231)" stroke-width="1" opacity="0.996078431372549" d="M 306.5 254 L 305.5 256 L 306.5 254 Z " /><path fill="rgb(229,230,231)" stroke="rgb(229,230,231)" stroke-width="1" opacity="0.996078431372549" d="M 332.5 256 L 337 264.5 L 336 264.5 L 332.5 256 Z " /><path fill="rgb(229,230,231)" stroke="rgb(229,230,231)" stroke-width="1" opacity="0.996078431372549" d="M 304.5 257 L 304 258.5 L 302.5 261 L 303 259.5 L 304.5 257 Z " /><path fill="rgb(229,230,231)" stroke="rgb(229,230,231)" stroke-width="1" opacity="0.996078431372549" d="M 300.5 264 L 301 265.5 L 299.5 268 L 299 266.5 L 300.5 264 Z " /><path fill="rgb(230,231,232)" stroke="rgb(230,231,232)" stroke-width="1" opacity="1" d="M 135.5 64 L 290.5 64 L 291 65.5 L 295 72.5 L 295 147 L 134.5 147 L 122.5 144 L 108 135 L 101 123.5 L 98 111.5 L 98 109.5 Q 98 99 101 91.5 Q 105.6 80.1 114.5 73 Q 122.6 66.1 135.5 64 Z " /><path fill="rgb(230,231,232)" stroke="rgb(230,231,232)" stroke-width="1" opacity="1" d="M 339 64 L 373 64.5 L 369 72.5 L 368 83.5 L 367 84.5 L 367 86.5 L 367 130.5 L 369 141.5 L 372 146.5 L 342 147 L 342 72.5 L 339 64 Z " /><path fill="rgb(230,231,232)" stroke="rgb(230,231,232)" stroke-width="1" opacity="1" d="M 56.5 236 L 294.5 236 L 295 236.5 L 295 276.5 L 297 275.5 Q 301 258 312.5 248 Q 315.2 245.2 321.5 246 L 329 251.5 L 338 267.5 L 341.5 277 L 342 236 L 375.5 236 L 384.5 238 Q 399.5 243 409 253.5 Q 418.6 263.4 423 278.5 L 424 283.5 L 424 301.5 Q 419.4 324.9 403.5 337 L 385.5 347 L 377.5 349 L 368.5 349 L 367.5 350 L 56 350 L 60 342.5 L 62 334.5 L 63 322.5 L 64 321.5 L 64 305.5 L 65 304.5 L 64 300.5 L 65 299.5 L 65 285.5 L 64 284.5 L 64 265.5 L 63 264.5 L 62 250.5 Q 60.1 241.1 56.5 236 Z " /></svg>